<svg xmlns="http://www.w3.org/2000/svg" fill="none" height="36" viewBox="-1 -1 38 38" width="36"><defs><filter id="ios-shadow" x="-8%" y="-8%" width="116%" height="116%" color-interpolation-filters="sRGB"><feDropShadow dx="0" dy="0.8" stdDeviation="0.4" flood-color="#455a64" flood-opacity="0.4"/></filter></defs><g filter="url(#ios-shadow)"><path d="m10 36h16c5.523 0 10-4.477 10-10v-16c0-5.523-4.477-10-10-10h-16c-5.523 0-10 4.477-10 10v16c0 5.523 4.477 10 10 10z" fill="#eceff1"/><path d="m6.783 11.974c-.2021 0-.39592.0803-.53882.2232s-.22318.3367-.22318.5388.08028.3959.22318.5388.33672.2232.53882.2232c.20209 0 .39591-.0803.53881-.2232s.22319-.3367.22319-.5388-.08029-.3959-.22319-.5388-.33672-.2232-.53881-.2232z" fill="#ffc107"/><path d="m9.98195 15.81 1.44405-.61c.68-1.22 1.8349-1.927 3.3319-1.927.34 0 .659.043.962.113l1.372-.579c-.676-.333-1.451-.526-2.334-.526-2.39 0-4.095 1.313-4.77595 3.529zm-2.685 1.134v-1.569h-1.024v2.002z" fill="#ff5722"/><path d="m7.29695 19.733v-2.789l-1.024.433v2.788zm3.44505-1.585c0-1.169.246-2.163.684-2.948l-1.44405.61c-.214.696-.333 1.476-.333 2.338 0 .201.028.382.04.574l1.06195-.449c-.001-.043-.0089-.081-.0089-.125zm13.6789-5.648c-.279.086-.537.195-.774.327zm-7.329.307-1.372.579c1.027.237 1.828.863 2.35 1.796l1.022-.432c-.468-.872-1.151-1.524-2-1.943z" fill="#f44336"/><path d="m7.29695 22.521v-2.788l-1.024.432v2.788zm17.12395-10.021-.774.327c-.983.547-1.577 1.464-1.577 2.58 0 .302.046.571.117.825l1.032-.436c-.034-.132-.056-.27-.056-.42 0-1.227 1.117-2.117 2.734-2.117.796 0 1.467.213 1.958.579l1.0481-.443c-.694-.684-1.735-1.113-2.974-1.113-.548-.001-1.0531.078-1.5081.218zm-13.671 5.774-1.06195.449c.059.959.26 1.811.59695 2.536l1.004-.424c-.335-.714-.523-1.575-.539-2.561zm8.342-3.523-1.022.432c.381.682.6031 1.532.6581 2.51l1.0609-.448c-.094-.948-.322-1.793-.697-2.494z" fill="#e91e63"/><path d="m19.6089 20.108c.146-.602.242-1.247.242-1.96 0-.316-.033-.609-.063-.904l-1.061.448c.009.153.03.296.03.456 0 .968-.177 1.809-.481 2.523zm-8.3189.726-1.0041.424c.408.879 1.008 1.568 1.777 2.038l1.258-.531c-.901-.338-1.5939-1.001-2.0309-1.931zm-3.99305 1.687-1.024.432v.836h1.024zm15.92295-6.726-1.032.436c.245.866.915 1.471 2.129 1.889l1.6001-.676-.3381-.085c-1.457-.364-2.173-.832-2.359-1.564zm5.4991-.522h1.078c-.05-.731-.3791-1.373-.8931-1.879l-1.048.443c.472.352.7791.847.8631 1.436z" fill="#9c27b0"/><path d="m19.609 20.1079-1.333.563c-.629 1.476-1.85 2.36-3.519 2.36-.528 0-1.001-.103-1.437-.267l-1.258.531c.752.459 1.648.728 2.695.728 2.543 0 4.262-1.482 4.852-3.915zm3.219.751h-1.078c.026.368.127.705.264 1.021l.989-.418c-.084-.189-.15-.388-.175-.603zm3.867-3.218-.779-.196-1.6.676c.234.081.487.156.762.224l1.289.328c.714.176 1.257.399 1.659.669l1.205-.509c-.528-.515-1.353-.899-2.536-1.192z" fill="#3f51b5"/><path d="m23.003 21.463-.989.418c.377.87 1.139 1.531 2.166 1.873l1.692-.714c-1.379-.033-2.457-.644-2.869-1.577zm6.911-.13c.035-.193.063-.39.063-.598 0-.784-.234-1.404-.745-1.902l-1.205.509c.579.39.856.883.856 1.51 0 .393-.131.75-.348 1.063z" fill="#03a9f4"/><path d="m29.914 21.333-1.379.583c-.472.682-1.394 1.132-2.55 1.132-.039 0-.074-.006-.112-.007l-1.692.714c.514.171 1.086.269 1.71.269 2.207-.001 3.724-1.06 4.023-2.691z" fill="#009688"/></g></svg>
